<svg xmlns="http://www.w3.org/2000/svg" xmlns:xlink="http://www.w3.org/1999/xlink" viewBox="0 0 155 60"><defs><style>.cls-1,.cls-10,.cls-11,.cls-3{fill:#fff;}.cls-1{fill-opacity:0;}.cls-2{fill:#a6a6a6;}.cls-4{fill:url(#linear-gradient);}.cls-5{fill:url(#linear-gradient-2);}.cls-6{fill:url(#linear-gradient-3);}.cls-7{fill:url(#linear-gradient-4);}.cls-8{opacity:0.2;}.cls-10,.cls-8,.cls-9{isolation:isolate;}.cls-9{opacity:0.12;}.cls-10{opacity:0.25;}.cls-11{stroke:#fff;stroke-miterlimit:10;stroke-width:0.2px;}</style><linearGradient id="linear-gradient" x1="31.8" y1="184.09" x2="15.02" y2="167.3" gradientTransform="matrix(1, 0, 0, -1, 0, 202.8)" gradientUnits="userSpaceOnUse"><stop offset="0" stop-color="#00a0ff"/><stop offset="0.01" stop-color="#00a1ff"/><stop offset="0.26" stop-color="#00beff"/><stop offset="0.51" stop-color="#00d2ff"/><stop offset="0.76" stop-color="#00dfff"/><stop offset="1" stop-color="#00e3ff"/></linearGradient><linearGradient id="linear-gradient-2" x1="43.83" y1="172.79" x2="19.64" y2="172.79" gradientTransform="matrix(1, 0, 0, -1, 0, 202.8)" gradientUnits="userSpaceOnUse"><stop offset="0" stop-color="#ffe000"/><stop offset="0.41" stop-color="#ffbd00"/><stop offset="0.78" stop-color="orange"/><stop offset="1" stop-color="#ff9c00"/></linearGradient><linearGradient id="linear-gradient-3" x1="34.83" y1="170.5" x2="12.07" y2="147.74" gradientTransform="matrix(1, 0, 0, -1, 0, 202.8)" gradientUnits="userSpaceOnUse"><stop offset="0" stop-color="#ff3a44"/><stop offset="1" stop-color="#c31162"/></linearGradient><linearGradient id="linear-gradient-4" x1="17.3" y1="192.62" x2="27.46" y2="182.46" gradientTransform="matrix(1, 0, 0, -1, 0, 202.8)" gradientUnits="userSpaceOnUse"><stop offset="0" stop-color="#32a071"/><stop offset="0.07" stop-color="#2da771"/><stop offset="0.48" stop-color="#15cf74"/><stop offset="0.8" stop-color="#06e775"/><stop offset="1" stop-color="#00f076"/></linearGradient></defs><g id="Camada_2" data-name="Camada 2"><g id="artwork"><rect class="cls-1" width="155" height="60"/><rect x="10" y="10" width="135" height="40" rx="5"/><path class="cls-2" d="M140,10.8a4.2,4.2,0,0,1,4.2,4.2V45a4.2,4.2,0,0,1-4.2,4.2H15A4.2,4.2,0,0,1,10.8,45V15A4.2,4.2,0,0,1,15,10.8H140m0-.8H15a5,5,0,0,0-5,5V45a5,5,0,0,0,5,5H140a5,5,0,0,0,5-5V15a5,5,0,0,0-5-5Z"/><path class="cls-3" d="M78.14,31.75A4.26,4.26,0,1,0,82.41,36,4.19,4.19,0,0,0,78.14,31.75Zm0,6.83A2.58,2.58,0,1,1,80.54,36,2.46,2.46,0,0,1,78.14,38.58Zm-9.32-6.83A4.26,4.26,0,1,0,73.09,36,4.19,4.19,0,0,0,68.82,31.75Zm0,6.83A2.58,2.58,0,1,1,71.22,36,2.46,2.46,0,0,1,68.82,38.58ZM57.74,33.06v1.8h4.32a3.77,3.77,0,0,1-1,2.27,4.42,4.42,0,0,1-3.34,1.32,4.8,4.8,0,0,1,0-9.6A4.64,4.64,0,0,1,61,30.14l1.27-1.27a6.3,6.3,0,0,0-4.53-1.82,6.61,6.61,0,1,0,0,13.21,6.07,6.07,0,0,0,4.61-1.85,6,6,0,0,0,1.56-4.23,6.27,6.27,0,0,0-.09-1.12Zm45.31,1.4a4,4,0,0,0-3.64-2.71,4,4,0,0,0-4,4.25,4.23,4.23,0,0,0,7.76,2.37l-1.45-1a2.41,2.41,0,0,1-2.09,1.17,2.15,2.15,0,0,1-2.06-1.29l5.69-2.35Zm-5.8,1.42a2.34,2.34,0,0,1,2.23-2.49,1.64,1.64,0,0,1,1.57.91ZM92.63,40H94.5V27.5H92.63Zm-3.06-7.3H89.5a2.94,2.94,0,0,0-2.24-1,4.26,4.26,0,0,0,0,8.51,2.88,2.88,0,0,0,2.24-1h.07v.61c0,1.63-.87,2.5-2.27,2.5a2.36,2.36,0,0,1-2.15-1.51l-1.62.67a4,4,0,0,0,3.77,2.52c2.19,0,4-1.29,4-4.43V32H89.57Zm-2.15,5.88a2.58,2.58,0,0,1,0-5.15A2.39,2.39,0,0,1,89.7,36,2.38,2.38,0,0,1,87.42,38.58ZM111.81,27.5h-4.48V40h1.87V35.26h2.61a3.89,3.89,0,1,0,0-7.76Zm0,6H109.2V29.24h2.65a2.14,2.14,0,1,1,0,4.28Zm11.54-1.79a3.49,3.49,0,0,0-3.33,1.91l1.65.69a1.78,1.78,0,0,1,1.71-.91,1.8,1.8,0,0,1,2,1.61v.12a4.18,4.18,0,0,0-1.95-.48c-1.78,0-3.6,1-3.6,2.82a2.89,2.89,0,0,0,3.11,2.75A2.65,2.65,0,0,0,125.32,39h.06v1h1.8V35.19C127.18,33,125.52,31.73,123.39,31.73Zm-.23,6.85c-.61,0-1.46-.31-1.46-1.06,0-1,1.06-1.34,2-1.34a3.32,3.32,0,0,1,1.7.42A2.26,2.26,0,0,1,123.16,38.58ZM133.74,32l-2.14,5.42h-.06L129.32,32h-2l3.33,7.58-1.9,4.21h1.95L135.82,32Zm-16.8,8h1.86V27.5h-1.86Z"/><path class="cls-4" d="M20.44,17.54a2,2,0,0,0-.47,1.4V41.06a1.94,1.94,0,0,0,.47,1.4l.07.08L32.9,30.15v-.3L20.51,17.47Z"/><path class="cls-5" d="M37,34.28,32.9,30.15v-.3L37,25.72l.09.06L42,28.56c1.4.79,1.4,2.09,0,2.89l-4.89,2.78Z"/><path class="cls-6" d="M37.12,34.22,32.9,30,20.44,42.46a1.62,1.62,0,0,0,2.07.07l14.61-8.31"/><path class="cls-7" d="M37.12,25.78l-14.61-8.3a1.61,1.61,0,0,0-2.07.06L32.9,30Z"/><path class="cls-8" d="M37,34.13,22.51,42.38a1.66,1.66,0,0,1-2,0h0l-.07.07h0l.07.08h0a1.66,1.66,0,0,0,2,0l14.61-8.31Z"/><path class="cls-9" d="M20.44,42.32A2,2,0,0,1,20,40.91v.15a1.94,1.94,0,0,0,.47,1.4l.07-.07Z"/><path class="cls-9" d="M42,31.3l-5,2.83.09.09L42,31.44A1.75,1.75,0,0,0,43.06,30h0A1.86,1.86,0,0,1,42,31.3Z"/><path class="cls-10" d="M22.51,17.62,42,28.7A1.86,1.86,0,0,1,43.06,30h0A1.75,1.75,0,0,0,42,28.56L22.51,17.48c-1.39-.8-2.54-.14-2.54,1.46v.15C20,17.49,21.12,16.83,22.51,17.62Z"/><path class="cls-11" d="M51.34,23V17h1.83a3,3,0,0,1,2.22.83A3,3,0,0,1,56.21,20a3,3,0,0,1-.82,2.17,3,3,0,0,1-2.22.83Zm.77-.74h1.06A2.08,2.08,0,0,0,55.43,20a2.09,2.09,0,0,0-2.26-2.26H52.11Z"/><path class="cls-11" d="M57.3,23V17h.77v6Z"/><path class="cls-11" d="M61.13,23.13a2.24,2.24,0,0,1-1.27-.42,2,2,0,0,1-.82-1.2l.7-.29a1.69,1.69,0,0,0,.52.84,1.32,1.32,0,0,0,.87.34,1.36,1.36,0,0,0,.86-.27.83.83,0,0,0,.36-.71.92.92,0,0,0-.36-.78,3.7,3.7,0,0,0-1.12-.51,2.87,2.87,0,0,1-1.21-.65,1.35,1.35,0,0,1-.41-1,1.51,1.51,0,0,1,.51-1.13,2.16,2.16,0,0,1,2.57-.09,1.7,1.7,0,0,1,.62.83l-.7.29a1.05,1.05,0,0,0-.37-.52,1.15,1.15,0,0,0-.77-.25,1.22,1.22,0,0,0-.76.25.76.76,0,0,0-.31.62.67.67,0,0,0,.29.56,2.68,2.68,0,0,0,.85.42,6.67,6.67,0,0,1,.74.27,3.18,3.18,0,0,1,.6.36,1.43,1.43,0,0,1,.46.55,1.71,1.71,0,0,1,.16.77,1.66,1.66,0,0,1-.18.78,1.4,1.4,0,0,1-.48.54,2.23,2.23,0,0,1-.64.31A2.44,2.44,0,0,1,61.13,23.13Z"/><path class="cls-11" d="M65,23h-.77V17h2.05a1.88,1.88,0,0,1,1.32.51,1.75,1.75,0,0,1,0,2.55,1.88,1.88,0,0,1-1.32.51H65Zm0-3.17H66.3a1,1,0,0,0,.78-.32,1,1,0,0,0,0-1.45,1,1,0,0,0-.78-.32H65Z"/><path class="cls-11" d="M74,22.22a3.11,3.11,0,0,1-4.4,0,3.24,3.24,0,0,1,0-4.44,3.11,3.11,0,0,1,4.4,0A3.08,3.08,0,0,1,74.93,20,3,3,0,0,1,74,22.22Zm-3.83-.5a2.22,2.22,0,0,0,1.63.68,2.19,2.19,0,0,0,1.63-.68,2.54,2.54,0,0,0,0-3.44,2.19,2.19,0,0,0-1.63-.68,2.22,2.22,0,0,0-1.63.68,2.57,2.57,0,0,0,0,3.44Z"/><path class="cls-11" d="M76,23V17H77l2.91,4.67h0l0-1.16V17h.77v6h-.8l-3-4.89h0l0,1.15V23Z"/><path class="cls-11" d="M82,23V17h.77v6Zm.72-6.47h-.67l.44-1.07h.83Z"/><path class="cls-11" d="M85.64,23l-2.11-6h.85L86,21.87h0L87.77,17h.85l-2.18,6Z"/><path class="cls-11" d="M93,17.74H90.26v1.9h2.47v.72H90.26v1.9H93V23H89.49V17H93Z"/><path class="cls-11" d="M94.2,23V17H95v5.26h2.6V23Z"/><path class="cls-11" d="M100.55,23V17h.94l2.92,4.67h0l0-1.16V17h.77v6h-.8l-3.06-4.89h0l0,1.15V23Z"/><path class="cls-11" d="M111.46,22.22a3.11,3.11,0,0,1-4.4,0,3.24,3.24,0,0,1,0-4.44,2.93,2.93,0,0,1,2.2-.91,3,3,0,0,1,2.2.91,3.07,3.07,0,0,1,.88,2.22A3,3,0,0,1,111.46,22.22Zm-3.83-.5a2.29,2.29,0,0,0,3.26,0,2.54,2.54,0,0,0,0-3.44,2.29,2.29,0,0,0-3.26,0,2.54,2.54,0,0,0,0,3.44Z"/></g></g></svg>